<svg aria-hidden="true" style="position: absolute; width: 0; height: 0; overflow: hidden;" version="1.1" xmlns="http://www.w3.org/2000/svg" xmlns:xlink="http://www.w3.org/1999/xlink">
<defs>
<symbol id="icon-alert" viewBox="0 0 32 32">
<path fill="#ff8d00" style="fill: var(--color1, #ff8d00)" d="M8.656 15.347l-7.308 12.627 7.327 0.013c4.029 0.008 10.623 0.008 14.652 0l7.327-0.013-7.311-12.627c-4.021-6.945-7.325-12.627-7.344-12.627s-3.323 5.681-7.343 12.627zM17.333 16v2.667h-2.667v-5.333h2.667v2.667zM17.333 22.667v1.333h-2.667v-2.667h2.667v1.333z"></path>
</symbol>
<symbol id="icon-close" viewBox="0 0 32 32">
<path d="M7.613 7.613l-0.947 0.947 7.44 7.44-7.44 7.44 1.893 1.893 7.44-7.44 7.44 7.44 1.893-1.893-7.44-7.44 7.44-7.44-1.893-1.893-7.44 7.44-7.44-7.44-0.947 0.947z"></path>
</symbol>
<symbol id="icon-search" viewBox="0 0 32 32">
<path d="M12.382 0.059c-1.279 0.132-2.45 0.403-3.561 0.801l0.105-0.033c-1.488 0.583-2.773 1.33-3.923 2.24l0.032-0.024c-1.499 1.233-2.717 2.749-3.583 4.471l-0.036 0.079c-0.835 1.704-1.237 3.203-1.374 5.139-0.020 0.272-0.031 0.589-0.031 0.909 0 1.211 0.163 2.385 0.467 3.499l-0.022-0.093c0.558 2.194 1.746 4.304 3.384 6.013 1.315 1.373 3.262 2.642 5.086 3.312 1.394 0.514 3.004 0.812 4.683 0.812 0.302 0 0.601-0.010 0.898-0.029l-0.041 0.002c1.936-0.138 3.435-0.539 5.139-1.374 0.738-0.362 2.149-1.238 2.315-1.44 0.061-0.074 0.55 0.397 3.808 3.646 2.056 2.053 3.838 3.794 3.963 3.87 0.198 0.123 0.28 0.139 0.707 0.139 0.541 0 0.714-0.074 1.12-0.48s0.48-0.579 0.48-1.12c0-0.427-0.016-0.509-0.139-0.707-0.077-0.125-1.818-1.907-3.87-3.963-3.25-3.258-3.72-3.747-3.646-3.808 0.202-0.166 1.078-1.578 1.44-2.315 0.835-1.704 1.237-3.203 1.374-5.139 0.017-0.256 0.026-0.556 0.026-0.858 0-1.679-0.298-3.289-0.843-4.78l0.031 0.097c-0.67-1.824-1.939-3.771-3.312-5.086-1.338-1.274-2.929-2.296-4.69-2.979l-0.098-0.033c-1.408-0.517-3.034-0.816-4.73-0.816-0.409 0-0.813 0.017-1.213 0.051l0.052-0.004zM14.709 3.256c1.251 0.147 2.39 0.487 3.435 0.991l-0.064-0.028c1.035 0.488 1.922 1.111 2.685 1.859l-0.002-0.001c0.96 0.922 1.568 1.744 2.138 2.89 0.694 1.349 1.1 2.944 1.1 4.634s-0.407 3.285-1.127 4.692l0.027-0.058c-1.049 2.085-2.716 3.729-4.759 4.72l-0.062 0.027c-1.312 0.641-2.855 1.016-4.485 1.016-2.35 0-4.518-0.779-6.26-2.093l0.026 0.019c-0.658-0.523-1.243-1.083-1.772-1.691l-0.014-0.016c-1.274-1.528-2.107-3.526-2.326-5.576-0.024-0.295-0.038-0.638-0.038-0.984 0-0.612 0.043-1.215 0.125-1.804l-0.008 0.068c0.445-2.567 1.766-4.768 3.638-6.33l0.017-0.014c1.495-1.221 3.353-2.052 5.39-2.311l0.053-0.006c0.347-0.032 0.751-0.050 1.16-0.050 0.395 0 0.786 0.017 1.172 0.051l-0.050-0.003z"></path>
</symbol>
<symbol id="arrow-down" viewBox="0 0 10 5">
<path d="M0 0H10L5 5L0 0Z" fill="#323642"/>
</symbol>
<symbol id="menu" viewBox="0 0 24 16">
<path d="M0 1C0 0.447715 0.447715 0 1 0H23C23.5523 0 24 0.447715 24 1C24 1.55228 23.5523 2 23 2H1C0.447716 2 0 1.55228 0 1ZM0 15C0 14.4477 0.447715 14 1 14H23C23.5523 14 24 14.4477 24 15C24 15.5523 23.5523 16 23 16H1C0.447716 16 0 15.5523 0 15ZM1 7C0.447715 7 0 7.44772 0 8C0 8.55229 0.447716 9 1 9H23C23.5523 9 24 8.55229 24 8C24 7.44772 23.5523 7 23 7H1Z" fill="#22252E"/>
</symbol>
<symbol id="cross" viewBox="0 0 19 20">
<rect y="17.7782" width="24" height="2" rx="1" transform="rotate(-45 0 17.7782)" fill="#22252E"/>
<rect x="1.79895" y="1" width="24" height="2" rx="1" transform="rotate(45 1.79895 1)" fill="#22252E"/>
</symbol>
<symbol id="comment" viewBox="0 0 16 16" fill="none">
<path d="M2.5 13V12.5H2H1C0.688994 12.5 0.5 12.2981 0.5 12.048V1.07C0.5 0.743482 0.76512 0.5 1 0.5H15C15.2349 0.5 15.5 0.743482 15.5 1.07V12.048C15.5 12.2981 15.311 12.5 15 12.5H8.28H8.15798L8.04968 12.5562L2.67723 15.3443C2.60392 15.3799 2.54476 15.3996 2.50089 15.4093C2.50033 15.3995 2.5 15.3884 2.5 15.376V13Z" stroke="#889099"/>
</symbol>
<symbol id="announcements" viewBox="0 0 60 60" fill="none">
<path d="M44.0632 33.1186V33.3498L44.1646 33.5575L48.0926 41.5998L48.0932 41.6009C48.2243 41.8686 48.2082 42.1849 48.0505 42.4379C47.8929 42.6908 47.6159 42.8446 47.3179 42.8448H35.8094H34.8094V43.8448V44.0265C34.8094 46.7733 32.5827 49 29.836 49C27.0892 49 24.8625 46.7733 24.8625 44.0265V43.8448V42.8448H23.8625H12.3634C12.0653 42.8446 11.7884 42.6908 11.6307 42.4379C11.4731 42.1849 11.457 41.8686 11.5881 41.6009L11.5887 41.5998L15.5166 33.5575L15.6181 33.3498V33.1186V25.4444H15.6181L15.618 25.4334C15.5541 19.6307 19.0992 14.3979 24.512 12.3055L24.5197 12.3025L24.5266 12.2997L24.5269 12.2996L24.5269 12.2996L24.5271 12.2995L24.5274 12.2994L24.5305 12.2981L24.5494 12.2907C24.5672 12.2837 24.5951 12.2728 24.6325 12.2587C24.7072 12.2303 24.8196 12.1887 24.9639 12.1383C25.2531 12.0374 25.6685 11.9018 26.1657 11.7661C27.1704 11.4918 28.4638 11.2299 29.7093 11.2299C30.9584 11.2299 32.3207 11.4931 33.3987 11.7699C33.9316 11.9068 34.3823 12.0436 34.6984 12.1457C34.8562 12.1968 34.9798 12.2389 35.0627 12.2678C35.1042 12.2823 35.1354 12.2934 35.1555 12.3007L35.1725 12.3069C40.5405 14.454 44.0618 19.6527 44.0632 25.4351C44.0632 25.4352 44.0632 25.4353 44.0632 25.4354V33.1186Z" stroke="#46B843" stroke-width="2"/>
<path d="M15.3571 43.2679H43.9286" stroke="#46B843" stroke-width="2" stroke-linecap="square"/>
</symbol>
<symbol id="popular-posts" viewBox="0 0 60 60" fill="none" xmlns="http://www.w3.org/2000/svg">
<path fill="#46B843" fill-rule="evenodd" clip-rule="evenodd" d="M37.2193 23.1315L37.2203 23.1325C43.666 29.5758 47.809 38.3188 48.3143 48.0002H44.6513C43.6552 30.6371 29.7138 16.678 12.3696 15.6739V12.0332C22.0451 12.5405 30.7712 16.6765 37.2193 23.1315ZM11.6346 17.6406C28.4569 18.2931 42.0392 31.8904 42.6842 48.7352C42.7117 49.4252 43.2667 50.0002 43.9592 50.0002H49.1192C49.8092 50.0002 50.3691 49.4252 50.3466 48.7352C50.0166 38.2078 45.6017 28.683 38.6343 21.718C31.6643 14.7406 22.1569 10.3331 11.6346 10.0007C10.9421 9.97815 10.3696 10.5406 10.3696 11.2306V16.3656C10.3696 17.0556 10.9421 17.6131 11.6346 17.6406ZM11.6246 23.6105C18.402 23.928 24.5144 26.823 29.0119 31.3279C33.5218 35.8404 36.4043 41.9578 36.7293 48.7352C36.7618 49.4252 36.2018 50.0002 35.5118 50.0002H30.3444C29.6544 50.0002 29.0969 49.4252 29.0519 48.7402C28.7494 44.1928 26.8419 39.9428 23.6044 36.7154C20.3745 33.4754 16.142 31.5629 11.6246 31.2604C10.9371 31.2129 10.3696 30.6554 10.3696 29.9654V24.833C10.3696 24.1405 10.9371 23.5805 11.6246 23.6105ZM27.5973 32.7417C31.5844 36.731 34.1919 42.0701 34.6777 48.0002H30.9983C30.5404 43.2045 28.4584 38.7313 25.0186 35.3012C21.5916 31.8645 17.1391 29.7753 12.3696 29.3149V25.6621C18.2924 26.1442 23.6224 28.7603 27.5965 32.741L27.5973 32.7417Z"/>
<ellipse cx="14.7174" cy="44.7826" rx="5.21739" ry="5.21739" stroke="#46B843" stroke-width="2"/>
</symbol>
<symbol id="arrow-right" viewBox="0 0 24 24" fill="none">
<path fill-rule="evenodd" clip-rule="evenodd" d="M19.835 11.6076C20.055 11.8243 20.055 12.1765 19.835 12.3932L15.3222 16.8375C15.1022 17.0542 14.7446 17.0542 14.5246 16.8375C14.3046 16.6208 14.3046 16.2686 14.5246 16.052L18.0739 12.5554H5.56409C5.25271 12.5554 5 12.3076 5 11.9999C5 11.6932 5.25271 11.4443 5.56409 11.4443H18.0739L14.5246 7.94886C14.3046 7.7322 14.3046 7.37999 14.5246 7.16333C14.6352 7.05444 14.7796 7 14.9229 7C15.0673 7 15.2117 7.05444 15.3222 7.16333L19.835 11.6076Z" fill="#4CB649"/>
</symbol>
<symbol id="facebook" viewBox="0 0 14 28" fill="none">
<path d="M9.08275 28V15.2285H13.2113L13.8275 10.2505H9.08275V7.07678C9.08275 5.63071 9.46479 4.65813 11.4613 4.65813H14V0.191956C13.5563 0.127971 12.0528 0 10.3028 0C6.64261 0 4.14084 2.31627 4.14084 6.5777V10.2505H0V15.2285H4.14084V28H9.08275Z" fill="#323642"/>
</symbol>
<symbol id="twitter" viewBox="0 0 28 23" fill="none">
<path d="M28 2.72126C26.9694 3.18305 25.8637 3.49623 24.7019 3.63604C25.8881 2.91766 26.7962 1.77821 27.2266 0.424635C26.1138 1.0899 24.8855 1.57297 23.5768 1.83484C22.5287 0.704224 21.038 0 19.3845 0C16.2124 0 13.6404 2.60097 13.6404 5.80706C13.6404 6.26177 13.6911 6.70588 13.7891 7.13056C9.01601 6.88812 4.78357 4.57558 1.95085 1.06159C1.45568 1.91798 1.17399 2.91586 1.17399 3.98105C1.17399 5.99638 2.18881 7.77459 3.72854 8.81494C2.78719 8.78311 1.90185 8.52124 1.12677 8.08597V8.15851C1.12677 10.9718 3.10741 13.3197 5.73365 13.8541C5.25248 13.985 4.74509 14.0576 4.22018 14.0576C3.84927 14.0576 3.49058 14.0204 3.13889 13.9497C3.87023 16.2587 5.99087 17.9378 8.50341 17.9838C6.53851 19.5409 4.06097 20.4663 1.36999 20.4663C0.906341 20.4663 0.449648 20.4379 0 20.3866C2.54229 22.0375 5.56048 23 8.80437 23C19.3706 23 25.1463 14.1496 25.1463 6.47413L25.1271 5.72216C26.2556 4.90819 27.2319 3.88551 28 2.72126Z" fill="#323642"/>
</symbol>
<symbol id="google" viewBox="0 0 34 22" fill="none">
<path fill-rule="evenodd" clip-rule="evenodd" d="M21.0476 9.56075C21.1488 10.1776 21.25 10.7944 21.25 11.4112C21.25 14.5981 20.3393 17.1682 18.3155 19.0187C16.3929 20.972 13.9643 22 10.8274 22C7.79167 22 5.2619 20.972 3.1369 18.8131C1.0119 16.6542 0 14.0841 0 11C0 7.91589 1.0119 5.34579 3.1369 3.18692C5.2619 1.02804 7.79167 0 10.8274 0C13.6607 0 16.0893 0.925234 18.1131 2.8785L15.1786 5.75701C14.0655 4.62617 12.5476 4.11215 10.8274 4.11215C9.00595 4.11215 7.3869 4.83178 6.07143 6.16822C4.75595 7.60748 4.04762 9.25234 4.04762 11.1028C4.04762 13.0561 4.75595 14.7009 6.07143 16.0374C7.3869 17.3738 9.00595 18.0935 10.8274 18.0935C12.3452 18.0935 13.6607 17.6822 14.875 16.8598C16.0893 15.9346 16.7976 14.8037 17 13.3645H10.8274V9.56075H21.0476ZM34 12.7477H30.9643V15.9346H27.8274V12.7477H24.6905V9.56075H27.8274V6.37383H30.9643V9.56075H34V12.7477Z" fill="#323642"/>
</symbol>
<symbol id="in" viewBox="0 0 28 28" fill="none">
<path fill-rule="evenodd" clip-rule="evenodd" d="M26.2713 0H2.24698C1.09656 0 0 0.781151 0 1.89681V26.0458C0 27.1614 1.09687 28 2.24698 28H26.2713C27.4217 28 28 27.1611 28 26.0458V1.89681C28 0.781464 27.4217 0 26.2713 0Z" fill="#323642"/>
<path fill-rule="evenodd" clip-rule="evenodd" d="M8.27267 23.5454H4.45449V10.8181H8.27267V23.5454ZM6.58085 8.90901H6.55235C5.1241 8.90901 4.19824 7.9814 4.19824 6.75861C4.19824 5.51109 5.15135 4.58545 6.60778 4.58545C8.06453 4.58545 8.96063 5.49845 8.98882 6.74629C8.98882 7.96939 8.06485 8.90901 6.58085 8.90901ZM24.1818 23.5454H19.7272V16.6641C19.7272 14.9527 19.1492 13.7853 17.6095 13.7853C16.4315 13.7853 15.727 14.5731 15.42 15.3332C15.306 15.6051 15.2727 15.9847 15.2727 16.3643V23.5454H11.0654C11.0654 23.5454 11.1212 12.0908 11.0654 10.8181H15.2727V12.5503C15.909 11.6834 16.9323 10.4465 19.1937 10.4465C21.996 10.4465 24.1818 12.2644 24.1818 16.1755V23.5454ZM15.2954 12.5907C15.3029 12.5788 15.3129 12.5644 15.3229 12.5507V12.5907H15.2954Z" fill="white"/>
</symbol>
<symbol id="reddit" viewBox="0 0 30 30" fill="none">
<path d="M14.6573 0.0102389C23.2105 -0.182414 30.2194 6.80341 29.993 15.4337C29.7865 23.3012 23.3311 30.0849 14.8212 29.999C6.71308 29.9174 0.044193 23.3472 0.00341797 14.999C0.0528685 6.66283 6.68358 0.190742 14.6573 0.0102389Z" fill="#323642"/>
<path fill-rule="evenodd" clip-rule="evenodd" d="M25.5702 16.8343C26.3649 16.2451 26.8473 15.4814 26.751 14.4522C26.6564 13.4429 26.1463 12.6923 25.2224 12.2818C24.2221 11.841 23.2652 11.965 22.4071 12.6662C22.3091 12.7461 22.2493 12.7495 22.1486 12.6836C20.5575 11.6344 18.8042 11.0469 16.9138 10.8551C16.7943 10.8429 16.6749 10.8304 16.5498 10.8173L16.5497 10.8172L16.2475 10.7857C16.4992 10.0027 16.7467 9.23203 16.9936 8.46338L16.9938 8.46286L17.463 7.00207C17.496 7.00738 17.5268 7.01189 17.5561 7.01617C17.613 7.02449 17.6642 7.03197 17.7146 7.04286C17.9851 7.10102 18.2555 7.15972 18.526 7.21844L18.526 7.21844L18.526 7.21844L18.5261 7.21845L18.5261 7.21846C19.2202 7.36912 19.9146 7.51986 20.6113 7.6616C20.81 7.70239 20.9089 7.77182 20.9653 7.98182C21.2307 8.97459 22.2189 9.60722 23.2166 9.44668C24.5882 9.22539 25.3325 7.74752 24.668 6.56383C24.1362 5.61792 22.4844 5.05212 21.4199 6.29047C21.3158 6.41197 21.2273 6.4406 21.072 6.40676C20.1586 6.20632 19.2443 6.01187 18.3297 5.81737C17.989 5.74493 17.6484 5.67247 17.3077 5.5997C16.7863 5.48775 16.5425 5.63094 16.382 6.14121C16.2312 6.61987 16.0801 7.09842 15.9291 7.57698L15.9291 7.5771L15.929 7.57722C15.6266 8.53538 15.3242 9.49354 15.0234 10.4525C14.9844 10.5774 14.9514 10.6677 14.784 10.6668C13.9372 10.6607 13.1026 10.7805 12.275 10.9558C10.7906 11.2699 9.41033 11.8305 8.15498 12.6871C8.04046 12.7652 7.97019 12.7339 7.86522 12.6853C7.74868 12.6314 7.63292 12.5739 7.51703 12.5163L7.51702 12.5163C7.20586 12.3618 6.89385 12.2068 6.56389 12.1195C4.99882 11.7047 3.14052 12.9769 3.46065 15.0674C3.58644 15.8893 4.07487 16.4837 4.7481 16.935C4.85914 17.0087 4.88343 17.0755 4.86348 17.197C4.67522 18.3278 4.79234 19.4247 5.24867 20.4799C5.8976 21.9804 7.01415 23.0651 8.37013 23.9208C9.91785 24.8979 11.6347 25.3926 13.4349 25.6191C15.0095 25.8161 16.5755 25.7414 18.1223 25.3926C20.3484 24.8901 22.3308 23.9347 23.8568 22.1843C25.0671 20.7958 25.6032 19.1817 25.3542 17.3402C25.3204 17.0946 25.3794 16.9757 25.5702 16.8343ZM20.2756 16.9107C20.279 17.742 19.5329 18.4857 18.694 18.4866C17.8213 18.4875 17.1073 17.7533 17.1064 16.8525C17.1055 16.029 17.8412 15.307 18.6853 15.3044C19.5546 15.3018 20.2721 16.0255 20.2756 16.9107ZM19.0688 21.5013C19.251 21.2905 19.2041 21.0397 19.0367 20.8739C18.8042 20.6431 18.504 20.5789 18.2707 20.7125C18.2184 20.7425 18.1686 20.7766 18.1188 20.8106L18.1188 20.8106L18.1188 20.8106C18.0793 20.8376 18.0398 20.8646 17.9991 20.8895C16.3915 21.8667 14.7119 22.0186 12.9716 21.2948C12.7045 21.1836 12.4534 21.032 12.203 20.8808L12.203 20.8808C12.1192 20.8302 12.0356 20.7797 11.9514 20.7307C11.7015 20.5849 11.3875 20.6361 11.148 20.8783C10.9901 21.0371 10.9702 21.3104 11.1281 21.5343C11.2174 21.6602 11.338 21.7738 11.4647 21.8624C12.5526 22.626 13.7759 22.9445 15.1908 22.961C15.2352 22.9577 15.2878 22.9543 15.3463 22.9504C15.4899 22.9409 15.6687 22.9291 15.8476 22.9124C16.7273 22.8317 17.5662 22.6 18.3253 22.1435C18.6021 21.9752 18.8554 21.7461 19.0688 21.5013ZM13.0922 16.9072C13.0957 17.7108 12.3401 18.4849 11.5515 18.4866C10.657 18.4883 9.91351 17.7689 9.91091 16.8994C9.90917 16.0394 10.637 15.3052 11.4916 15.3052C12.3574 15.3044 13.0888 16.0359 13.0922 16.9072Z" fill="white"/>
</symbol>
<symbol id="youtube" viewBox="0 0 42 29" fill="none">
<path fill-rule="evenodd" clip-rule="evenodd" d="M41.4286 6.19495C41.4286 2.77341 38.657 0 35.2373 0H6.19127C2.77157 0 0 2.77341 0 6.19495V22.805C0 26.2266 2.77157 29 6.19127 29H35.2373C38.657 29 41.4286 26.2266 41.4286 22.805V6.19495Z" fill="#323642"/>
<path fill-rule="evenodd" clip-rule="evenodd" d="M16.5714 22.602V7L28.4025 14.801L16.5714 22.602Z" fill="white"/>
</symbol>


</defs>
</svg>
