<svg width="239" height="33" viewBox="0 0 239 33" fill="none" xmlns="http://www.w3.org/2000/svg">
<path d="M26.2534 11.3257V11.3266H24.9883V10.1956C24.9883 4.58429 20.4137 0.0359514 14.7713 0.0359514C9.12982 0.0359514 4.55524 4.58526 4.55524 10.1956V11.3266H3.29208C1.96577 11.3266 0.891113 12.3945 0.891113 13.714V23.041C0.894028 23.6628 0.930951 24.1137 1.17387 24.4421C1.42553 24.7725 1.84917 24.89 2.48172 24.8891H4.51346L4.82342 29.8008C4.82342 29.8125 4.82245 29.8319 4.82245 29.8562C4.82342 29.9864 4.838 30.2857 5.00221 30.5723C5.16447 30.8619 5.50553 31.1203 6.05646 31.1155H11.2208L13.9026 28.2704H15.9062L18.4995 31.2039H18.5714C18.5714 31.2039 19.5101 31.2039 20.5497 31.2039C21.5875 31.2039 22.7272 31.2039 23.1295 31.2039H23.1305C23.5298 31.2019 23.8942 31.2117 24.211 31.0105C24.5267 30.8045 24.7162 30.4139 24.8076 29.7328C24.9407 28.7427 24.9718 26.0337 25.033 24.89H27.0628C27.6876 24.8881 28.0956 24.8288 28.3609 24.5432C28.6165 24.2536 28.6505 23.8397 28.6534 23.2188V13.715C28.6534 12.3945 27.5787 11.3266 26.2534 11.3257Z" fill="#349334"/>
<path d="M28.3334 23.2188C28.3363 23.83 28.2751 24.172 28.1235 24.3294C27.9826 24.4936 27.6756 24.5733 27.0635 24.5713H24.7295L24.7218 24.7219C24.6654 25.7995 24.6275 28.6815 24.4915 29.69C24.404 30.3411 24.234 30.617 24.0367 30.7433C23.8385 30.8764 23.5354 30.8862 23.1311 30.8842H23.1302C22.3917 30.8842 19.1697 30.8842 18.644 30.8842L16.0507 27.9498H13.7643L11.0826 30.7948H6.05616C5.59851 30.79 5.40321 30.6151 5.27884 30.411C5.15932 30.207 5.13989 29.9543 5.14183 29.8552C5.14183 29.8241 5.1428 29.8115 5.1428 29.8115L5.14378 29.7989L4.81244 24.5704H2.48143C1.87414 24.5694 1.58459 24.4577 1.43009 24.2507C1.26685 24.0428 1.20855 23.6492 1.2105 23.04V13.713C1.21244 12.5694 2.14232 11.6453 3.29179 11.6434H4.8756V10.1947C4.88531 4.76016 9.3054 0.363401 14.772 0.353684C20.2375 0.363401 24.6586 4.76016 24.6683 10.1956V11.6444H26.2531C27.4016 11.6463 28.3315 12.5704 28.3324 13.714V23.2188H28.3334Z" fill="#4CB649"/>
<path d="M5.18066 24.3138H24.4079V24.9415H5.18066V24.3138Z" fill="#118011"/>
<path d="M4.86133 24.5402V12.4985H5.181V24.5402H4.86133Z" fill="#118011"/>
<path d="M24.4092 24.5402V12.4985H24.7298V24.5402H24.4092Z" fill="#118011"/>
<ellipse cx="14.6274" cy="15.0967" rx="6.88518" ry="1.26121" fill="url(#paint0_linear_0_626)"/>
<path d="M21.0558 11.8688V10.0275C21.0558 6.55968 18.2448 3.74769 14.7759 3.74769C11.3081 3.74769 8.49512 6.55968 8.49512 10.0275V11.8688H21.0558Z" fill="white"/>
<path d="M12.1274 9.95174H17.7261V10.6076H12.1274V9.95174Z" fill="url(#paint1_radial_0_626)"/>
<circle cx="12.6821" cy="7.17765" r="1.16016" fill="black"/>
<circle cx="16.8184" cy="7.17765" r="1.16016" fill="black"/>
<rect x="12.52" y="18.8667" width="4.21409" height="3.14818" fill="white"/>
<path d="M13.163 18.5461C13.3525 17.8824 13.9403 17.4005 14.6351 17.3995C15.3298 17.4005 15.9177 17.8824 16.1081 18.5461H16.6085C16.4064 17.6191 15.6058 16.9195 14.6351 16.9185C13.6654 16.9195 12.8637 17.6191 12.6626 18.5461H13.163Z" fill="white"/>
<path d="M27.3832 25.2107C27.4959 25.2097 27.5989 25.2068 27.698 25.2019V24.8502C27.5163 24.8784 27.3065 24.8891 27.0626 24.8891H25.0328C25.0017 25.4575 24.9793 26.4117 24.9473 27.3493H25.2776C25.3048 26.5195 25.3262 25.713 25.3524 25.2107H27.3832Z" fill="#118011"/>
<path d="M27.6992 25.3768V25.2019C27.6001 25.2068 27.4961 25.2097 27.3844 25.2107H25.3546C25.3274 25.714 25.306 26.5205 25.2798 27.3493H25.7491C26.8267 27.3493 27.6992 26.4661 27.6992 25.3768Z" fill="url(#paint2_linear_0_626)"/>
<path d="M4.51359 24.8891H2.48184C2.16703 24.89 1.90565 24.8609 1.68994 24.7909V25.2C1.8182 25.2146 1.95812 25.2223 2.11067 25.2214L4.14338 25.2204L4.27844 27.3483H4.67002L4.51359 24.8891Z" fill="#118011"/>
<path d="M2.11067 25.2223C1.95812 25.2223 1.8182 25.2155 1.68994 25.201V25.3778C1.68994 26.467 2.56249 27.3503 3.63812 27.3503H4.27747L4.14241 25.2223H2.11067Z" fill="url(#paint3_linear_0_626)"/>
<path fill-rule="evenodd" clip-rule="evenodd" d="M42.7712 16.7736C42.7712 18.4225 42.3971 19.743 41.648 20.736C40.8998 21.7291 39.8883 22.2246 38.6164 22.2246C37.5349 22.2246 36.6604 21.8486 35.9949 21.0965V26.1423H33.1362V11.3226H35.7879L35.887 12.371C36.5798 11.5402 37.4834 11.1244 38.5979 11.1244C39.9165 11.1244 40.9425 11.6131 41.6742 12.5887C42.4059 13.5652 42.7722 14.91 42.7722 16.6249V16.7736H42.7712ZM39.9126 16.556C39.9126 15.5571 39.7357 14.7866 39.383 14.2434C39.0303 13.7012 38.5173 13.4291 37.8449 13.4291C36.9481 13.4291 36.331 13.7731 35.9949 14.4611V18.8568C36.3447 19.5642 36.9675 19.9189 37.8643 19.9189C39.2305 19.9198 39.9126 18.7985 39.9126 16.556Z" fill="#22252E"/>
<path d="M50.8613 14.0044C50.4716 13.9519 50.1296 13.9257 49.8323 13.9257C48.7508 13.9257 48.0415 14.292 47.7053 15.0236V22.0274H44.8467V11.3226H47.5479L47.6266 12.5984C48.2008 11.616 48.9947 11.1244 50.0111 11.1244C50.3278 11.1244 50.6242 11.1671 50.9011 11.2526L50.8613 14.0044Z" fill="#22252E"/>
<path fill-rule="evenodd" clip-rule="evenodd" d="M52.5205 8.55336C52.5205 8.12486 52.6633 7.77215 52.951 7.49522C53.2376 7.2183 53.6282 7.07935 54.1228 7.07935C54.6105 7.07935 55.0002 7.2183 55.2897 7.49522C55.5803 7.77215 55.725 8.12486 55.725 8.55336C55.725 8.98866 55.5783 9.34526 55.2849 9.62219C54.9914 9.89911 54.6037 10.0381 54.1228 10.0381C53.6408 10.0381 53.2541 9.89911 52.9607 9.62219C52.6672 9.34429 52.5205 8.98866 52.5205 8.55336ZM55.5579 22.0274H52.6886V11.3226H55.5579V22.0274Z" fill="#22252E"/>
<path d="M62.2225 18.5352L64.2105 11.3236H67.1983L63.5876 22.0274H60.8573L57.2466 11.3226H60.2344L62.2225 18.5352Z" fill="#22252E"/>
<path fill-rule="evenodd" clip-rule="evenodd" d="M74.8132 22.0274C74.6811 21.7699 74.5859 21.4502 74.5266 21.0674C73.8338 21.8389 72.934 22.2246 71.8254 22.2246C70.777 22.2246 69.9073 21.9215 69.2184 21.3142C68.5295 20.7079 68.1846 19.9422 68.1846 19.0191C68.1846 17.8852 68.6053 17.0146 69.4458 16.4073C70.2872 15.801 71.5018 15.4939 73.0915 15.4871H74.4071V14.874C74.4071 14.3794 74.2798 13.984 74.0262 13.6866C73.7726 13.3903 73.3713 13.2416 72.8242 13.2416C72.3423 13.2416 71.9653 13.3572 71.6913 13.5875C71.4173 13.8188 71.2803 14.1355 71.2803 14.5368H68.4217C68.4217 13.9169 68.6131 13.3436 68.9959 12.8151C69.3778 12.2874 69.919 11.8735 70.6186 11.5733C71.3172 11.273 72.1023 11.1234 72.9729 11.1234C74.2915 11.1234 75.3389 11.4547 76.1133 12.1174C76.8887 12.7801 77.2754 13.7119 77.2754 14.9119V19.5516C77.2822 20.567 77.4241 21.3355 77.701 21.8564V22.0245H74.8132V22.0274ZM72.4492 20.0384C72.8709 20.0384 73.2605 19.9441 73.6161 19.7566C73.9727 19.5681 74.2361 19.3164 74.4081 18.9997V17.1594H73.3392C71.908 17.1594 71.1462 17.6539 71.0539 18.6431L71.0442 18.8112C71.0442 19.1678 71.1695 19.4612 71.4202 19.6915C71.6709 19.9237 72.0139 20.0384 72.4492 20.0384Z" fill="#22252E"/>
<path d="M83.1999 8.69134V11.3226H85.0305V13.4194H83.1999V18.7616C83.1999 19.1571 83.2756 19.4408 83.4272 19.6128C83.5788 19.7848 83.8693 19.8703 84.2978 19.8703C84.6146 19.8703 84.8944 19.847 85.1383 19.8013V21.9681C84.5777 22.1391 84.0005 22.2256 83.4068 22.2256C81.4013 22.2256 80.3791 21.2131 80.3403 19.1882V13.4204H78.7769V11.3226H80.3403V8.69134H83.1999Z" fill="#22252E"/>
<path fill-rule="evenodd" clip-rule="evenodd" d="M91.8536 22.2246C90.2834 22.2246 89.0056 21.7436 88.0204 20.7807C87.0341 19.8178 86.5415 18.5352 86.5415 16.932V16.6551C86.5415 15.5804 86.7494 14.6185 87.1643 13.7712C87.5802 12.9239 88.169 12.2709 88.9298 11.8123C89.6916 11.3537 90.5603 11.1253 91.5368 11.1253C93.0011 11.1253 94.1535 11.5869 94.9949 12.51C95.8354 13.433 96.2562 14.7428 96.2562 16.4374V17.6044H89.44C89.5323 18.304 89.8111 18.8646 90.2756 19.2863C90.741 19.709 91.3289 19.9198 92.0421 19.9198C93.143 19.9198 94.0039 19.5205 94.6238 18.7228L96.0288 20.2959C95.6003 20.9032 95.0192 21.3754 94.2876 21.7155C93.5549 22.0555 92.7436 22.2246 91.8536 22.2246ZM91.5271 13.4301C90.9596 13.4301 90.5 13.6225 90.1473 14.0063C89.7946 14.3901 89.5682 14.9401 89.4691 15.6562H93.4461V15.4279C93.4325 14.7914 93.2615 14.2998 92.9321 13.9519C92.6017 13.604 92.1334 13.4301 91.5271 13.4301Z" fill="#22252E"/>
<path fill-rule="evenodd" clip-rule="evenodd" d="M98.5581 8.23174C98.5581 8.00923 98.631 7.82073 98.7758 7.66623C98.9205 7.51271 99.1188 7.43498 99.3694 7.43498C99.6201 7.43498 99.8193 7.51174 99.968 7.66623C100.117 7.82073 100.19 8.00826 100.19 8.23174C100.19 8.45522 100.117 8.64178 99.968 8.79239C99.8203 8.943 99.6201 9.01879 99.3694 9.01879C99.1188 9.01879 98.9205 8.943 98.7758 8.79239C98.631 8.64081 98.5581 8.45425 98.5581 8.23174ZM99.9534 22.0274H98.766V11.3226H99.9534V22.0274Z" fill="#22252E"/>
<path d="M104.6 11.3226L104.64 13.1532C105.042 12.4934 105.543 11.9911 106.144 11.6442C106.743 11.2973 107.407 11.1244 108.132 11.1244C109.279 11.1244 110.133 11.4479 110.694 12.0941C111.255 12.7402 111.538 13.71 111.545 15.0023V22.0264H110.368V14.9926C110.361 14.0364 110.159 13.3242 109.759 12.8559C109.36 12.3875 108.723 12.1534 107.845 12.1534C107.113 12.1534 106.465 12.3827 105.901 12.8403C105.337 13.2989 104.919 13.9169 104.649 14.6952V22.0254H103.472V11.3226H104.6Z" fill="#22252E"/>
<path d="M116.745 8.58251V11.3226H118.962V12.2923H116.745V19.433C116.745 20.0277 116.852 20.4698 117.067 20.7603C117.281 21.0508 117.639 21.1956 118.141 21.1956C118.339 21.1956 118.659 21.1626 119.101 21.0965L119.15 22.0575C118.84 22.1683 118.419 22.2236 117.884 22.2236C117.073 22.2236 116.483 21.9875 116.114 21.5163C115.745 21.045 115.56 20.3503 115.56 19.434V12.2923H113.591V11.3226H115.56V8.58251H116.745Z" fill="#22252E"/>
<path fill-rule="evenodd" clip-rule="evenodd" d="M125.864 22.2246C124.954 22.2246 124.132 22.0002 123.396 21.5522C122.661 21.1043 122.089 20.4785 121.681 19.6779C121.271 18.8763 121.067 17.9775 121.067 16.9815V16.556C121.067 15.527 121.267 14.601 121.666 13.776C122.065 12.9521 122.62 12.304 123.332 11.8317C124.045 11.3605 124.816 11.1244 125.647 11.1244C126.946 11.1244 127.977 11.5684 128.739 12.4555C129.5 13.3427 129.881 14.5543 129.881 16.0915V16.7542H122.244V16.9815C122.244 18.1951 122.592 19.2057 123.288 20.0141C123.983 20.8215 124.859 21.2257 125.914 21.2257C126.548 21.2257 127.106 21.1101 127.591 20.8798C128.076 20.6496 128.516 20.2803 128.912 19.7721L129.654 20.3357C128.782 21.595 127.519 22.2246 125.864 22.2246ZM125.647 12.1339C124.757 12.1339 124.007 12.4604 123.396 13.1134C122.786 13.7663 122.415 14.6437 122.284 15.7446H128.705V15.6164C128.672 14.5874 128.378 13.7498 127.824 13.1036C127.269 12.4575 126.543 12.1339 125.647 12.1339Z" fill="#22252E"/>
<path d="M137.436 12.3321C137.185 12.2865 136.918 12.2632 136.634 12.2632C135.896 12.2632 135.271 12.4691 134.759 12.8811C134.248 13.2931 133.884 13.8917 133.666 14.6768V22.0274H132.488V11.3226H133.646L133.665 13.024C134.292 11.7579 135.297 11.1244 136.682 11.1244C137.011 11.1244 137.272 11.1671 137.463 11.2526L137.436 12.3321Z" fill="#22252E"/>
<path d="M140.737 11.3226L140.777 13.1532C141.18 12.4934 141.681 11.9911 142.281 11.6442C142.881 11.2973 143.545 11.1244 144.269 11.1244C145.417 11.1244 146.271 11.4479 146.832 12.0941C147.392 12.7402 147.676 13.71 147.683 15.0023V22.0264H146.505V14.9926C146.498 14.0364 146.296 13.3242 145.897 12.8559C145.498 12.3875 144.86 12.1534 143.983 12.1534C143.251 12.1534 142.603 12.3827 142.039 12.8403C141.475 13.2989 141.057 13.9169 140.787 14.6952V22.0254H139.609V11.3226H140.737Z" fill="#22252E"/>
<path fill-rule="evenodd" clip-rule="evenodd" d="M155.188 22.2246C154.278 22.2246 153.456 22.0002 152.72 21.5522C151.985 21.1043 151.412 20.4785 151.004 19.6779C150.595 18.8763 150.391 17.9775 150.391 16.9815V16.556C150.391 15.527 150.59 14.601 150.99 13.776C151.389 12.9521 151.944 12.304 152.656 11.8317C153.368 11.3605 154.14 11.1244 154.971 11.1244C156.27 11.1244 157.301 11.5684 158.062 12.4555C158.824 13.3427 159.205 14.5543 159.205 16.0915V16.7542H151.568V16.9815C151.568 18.1951 151.916 19.2057 152.611 20.0141C153.307 20.8215 154.183 21.2257 155.238 21.2257C155.871 21.2257 156.43 21.1101 156.915 20.8798C157.4 20.6496 157.84 20.2803 158.235 19.7721L158.978 20.3357C158.107 21.595 156.844 22.2246 155.188 22.2246ZM154.971 12.1339C154.081 12.1339 153.33 12.4604 152.72 13.1134C152.11 13.7663 151.739 14.6437 151.608 15.7446H158.028V15.6164C157.995 14.5874 157.702 13.7498 157.148 13.1036C156.593 12.4575 155.867 12.1339 154.971 12.1339Z" fill="#22252E"/>
<path d="M163.654 8.58251V11.3226H165.87V12.2923H163.654V19.433C163.654 20.0277 163.761 20.4698 163.976 20.7603C164.189 21.0508 164.548 21.1956 165.049 21.1956C165.248 21.1956 165.567 21.1626 166.009 21.0965L166.059 22.0575C165.749 22.1683 165.327 22.2236 164.793 22.2236C163.981 22.2236 163.392 21.9875 163.022 21.5163C162.653 21.045 162.469 20.3503 162.469 19.434V12.2923H160.5V11.3226H162.469V8.58251H163.654Z" fill="#22252E"/>
<path fill-rule="evenodd" clip-rule="evenodd" d="M175.384 22.0274C175.265 21.6912 175.19 21.1927 175.157 20.5339C174.741 21.0751 174.212 21.492 173.569 21.7854C172.927 22.0789 172.245 22.2256 171.527 22.2256C170.498 22.2256 169.665 21.9389 169.028 21.3647C168.392 20.7904 168.073 20.0656 168.073 19.1882C168.073 18.1466 168.507 17.3216 169.374 16.7153C170.242 16.109 171.45 15.8049 173.001 15.8049H175.147V14.5883C175.147 13.8236 174.911 13.2212 174.44 12.783C173.968 12.3448 173.28 12.1252 172.377 12.1252C171.552 12.1252 170.87 12.336 170.328 12.7587C169.787 13.1814 169.517 13.6886 169.517 14.2823L168.33 14.2726C168.33 13.4214 168.725 12.6849 169.517 12.062C170.309 11.4382 171.282 11.1273 172.436 11.1273C173.629 11.1273 174.572 11.4256 175.261 12.0232C175.95 12.6198 176.304 13.4525 176.324 14.5213V19.5866C176.324 20.6223 176.432 21.3968 176.65 21.9117V22.0303H175.384V22.0274ZM171.664 21.1762C172.456 21.1762 173.164 20.9848 173.787 20.6019C174.41 20.2201 174.863 19.708 175.147 19.0687V16.7143H173.03C171.849 16.7279 170.926 16.9436 170.259 17.3624C169.593 17.7812 169.261 18.3564 169.261 19.0891C169.261 19.6896 169.483 20.187 169.928 20.5825C170.373 20.9789 170.952 21.1762 171.664 21.1762Z" fill="#22252E"/>
<path d="M183.741 21.2257C184.565 21.2257 185.255 20.9935 185.813 20.5281C186.371 20.0627 186.672 19.4612 186.719 18.7228H187.857C187.824 19.3757 187.619 19.9713 187.243 20.5087C186.867 21.046 186.368 21.4667 185.745 21.7699C185.121 22.073 184.454 22.2246 183.742 22.2246C182.337 22.2246 181.224 21.7368 180.403 20.7603C179.582 19.7848 179.171 18.4721 179.171 16.8232V16.4666C179.171 15.4113 179.356 14.4785 179.725 13.6672C180.094 12.8559 180.624 12.2291 181.312 11.788C182.001 11.3459 182.808 11.1253 183.731 11.1253C184.905 11.1253 185.872 11.4751 186.634 12.1738C187.396 12.8734 187.803 13.7926 187.856 14.9343H186.718C186.664 14.0967 186.363 13.4204 185.812 12.9064C185.261 12.3924 184.567 12.1349 183.73 12.1349C182.661 12.1349 181.832 12.5206 181.242 13.2921C180.652 14.0636 180.356 15.1461 180.356 16.5375V16.8834C180.356 18.2486 180.652 19.3135 181.242 20.0792C181.833 20.8439 182.666 21.2257 183.741 21.2257Z" fill="#22252E"/>
<path d="M194.481 21.2257C195.305 21.2257 195.996 20.9935 196.554 20.5281C197.112 20.0627 197.413 19.4612 197.459 18.7228H198.597C198.564 19.3757 198.36 19.9713 197.984 20.5087C197.608 21.046 197.109 21.4667 196.486 21.7699C195.862 22.073 195.195 22.2246 194.482 22.2246C193.077 22.2246 191.965 21.7368 191.144 20.7603C190.323 19.7848 189.912 18.4721 189.912 16.8232V16.4666C189.912 15.4113 190.096 14.4785 190.465 13.6672C190.835 12.8559 191.364 12.2291 192.053 11.788C192.742 11.3459 193.549 11.1253 194.472 11.1253C195.645 11.1253 196.613 11.4751 197.375 12.1738C198.137 12.8734 198.544 13.7926 198.596 14.9343H197.459C197.405 14.0967 197.104 13.4204 196.553 12.9064C196.002 12.3924 195.308 12.1349 194.471 12.1349C193.402 12.1349 192.573 12.5206 191.982 13.2921C191.392 14.0636 191.097 15.1461 191.097 16.5375V16.8834C191.097 18.2486 191.392 19.3135 191.982 20.0792C192.574 20.8439 193.407 21.2257 194.481 21.2257Z" fill="#22252E"/>
<path fill-rule="evenodd" clip-rule="evenodd" d="M205.41 22.2246C204.5 22.2246 203.678 22.0002 202.942 21.5522C202.207 21.1043 201.634 20.4785 201.226 19.6779C200.817 18.8763 200.613 17.9775 200.613 16.9815V16.556C200.613 15.527 200.812 14.601 201.212 13.776C201.611 12.9521 202.166 12.304 202.878 11.8317C203.59 11.3605 204.362 11.1244 205.193 11.1244C206.492 11.1244 207.523 11.5684 208.285 12.4555C209.046 13.3427 209.427 14.5543 209.427 16.0915V16.7542H201.79V16.9815C201.79 18.1951 202.138 19.2057 202.834 20.0141C203.529 20.8215 204.405 21.2257 205.46 21.2257C206.093 21.2257 206.652 21.1101 207.137 20.8798C207.622 20.6496 208.062 20.2803 208.457 19.7721L209.2 20.3357C208.329 21.595 207.066 22.2246 205.41 22.2246ZM205.193 12.1339C204.303 12.1339 203.553 12.4604 202.942 13.1134C202.332 13.7663 201.961 14.6437 201.83 15.7446H208.251V15.6164C208.217 14.5874 207.924 13.7498 207.37 13.1036C206.815 12.4575 206.09 12.1339 205.193 12.1339Z" fill="#22252E"/>
<path d="M218.447 19.3067C218.447 18.7198 218.211 18.2486 217.74 17.892C217.269 17.5354 216.557 17.2575 215.608 17.0564C214.659 16.8552 213.921 16.6249 213.397 16.3636C212.873 16.1032 212.483 15.7854 212.23 15.4094C211.976 15.0334 211.849 14.5786 211.849 14.0442C211.849 13.1998 212.202 12.5022 212.907 11.9513C213.612 11.4003 214.516 11.1253 215.618 11.1253C216.811 11.1253 217.769 11.4207 218.492 12.0105C219.214 12.6013 219.575 13.3709 219.575 14.3211H218.388C218.388 13.6944 218.126 13.1736 217.602 12.7577C217.077 12.3419 216.417 12.1349 215.618 12.1349C214.84 12.1349 214.215 12.3079 213.744 12.6547C213.272 13.0006 213.036 13.4505 213.036 14.0053C213.036 14.5398 213.232 14.9537 213.625 15.2471C214.018 15.5406 214.733 15.8097 215.771 16.0536C216.81 16.2975 217.588 16.5579 218.106 16.8348C218.624 17.1117 219.008 17.445 219.259 17.8337C219.509 18.2233 219.635 18.6946 219.635 19.2484C219.635 20.1521 219.27 20.874 218.542 21.4152C217.813 21.9564 216.862 22.2266 215.688 22.2266C214.441 22.2266 213.431 21.9244 212.656 21.3219C211.881 20.7185 211.494 19.9548 211.494 19.0317H212.682C212.727 19.7245 213.02 20.2628 213.557 20.6496C214.094 21.0353 214.806 21.2277 215.689 21.2277C216.513 21.2277 217.179 21.046 217.688 20.6836C218.193 20.3192 218.447 19.8606 218.447 19.3067Z" fill="#22252E"/>
<path d="M229.009 19.3067C229.009 18.7198 228.773 18.2486 228.301 17.892C227.83 17.5354 227.119 17.2575 226.17 17.0564C225.22 16.8552 224.483 16.6249 223.958 16.3636C223.434 16.1032 223.045 15.7854 222.791 15.4094C222.538 15.0334 222.41 14.5786 222.41 14.0442C222.41 13.1998 222.763 12.5022 223.468 11.9513C224.174 11.4003 225.078 11.1253 226.179 11.1253C227.373 11.1253 228.331 11.4207 229.054 12.0105C229.776 12.6013 230.137 13.3709 230.137 14.3211H228.95C228.95 13.6944 228.687 13.1736 228.164 12.7577C227.639 12.3419 226.978 12.1349 226.179 12.1349C225.401 12.1349 224.776 12.3079 224.305 12.6547C223.834 13.0006 223.598 13.4505 223.598 14.0053C223.598 14.5398 223.794 14.9537 224.187 15.2471C224.579 15.5406 225.294 15.8097 226.333 16.0536C227.372 16.2975 228.15 16.5579 228.668 16.8348C229.186 17.1117 229.57 17.445 229.82 17.8337C230.071 18.2233 230.196 18.6946 230.196 19.2484C230.196 20.1521 229.832 20.874 229.103 21.4152C228.374 21.9564 227.423 22.2266 226.249 22.2266C225.003 22.2266 223.992 21.9244 223.218 21.3219C222.442 20.7185 222.056 19.9548 222.056 19.0317H223.243C223.289 19.7245 223.581 20.2628 224.118 20.6496C224.656 21.0353 225.367 21.2277 226.25 21.2277C227.074 21.2277 227.741 21.046 228.249 20.6836C228.755 20.3192 229.009 19.8606 229.009 19.3067Z" fill="#22252E"/>
<path fill-rule="evenodd" clip-rule="evenodd" d="M235.835 8.57085H235.098V9.84081H234.682V6.70235H235.721C236.074 6.70235 236.347 6.783 236.537 6.94332C236.727 7.10462 236.822 7.33879 236.822 7.64583C236.822 7.84113 236.77 8.01117 236.664 8.15692C236.558 8.3017 236.41 8.4115 236.223 8.48243L236.96 9.81457V9.83984H236.516L235.835 8.57085ZM235.098 8.23271H235.735C235.94 8.23271 236.104 8.18024 236.225 8.07336C236.346 7.96648 236.406 7.82462 236.406 7.64583C236.406 7.4515 236.349 7.30283 236.233 7.19887C236.118 7.0949 235.951 7.04243 235.732 7.04049H235.098V8.23271Z" fill="#22252E"/>
<path fill-rule="evenodd" clip-rule="evenodd" d="M235.679 11.6355C233.849 11.6355 232.361 10.1479 232.361 8.31822C232.361 6.48858 233.85 5 235.679 5C237.508 5 238.996 6.48761 238.996 8.31725C238.996 10.1469 237.508 11.6355 235.679 11.6355ZM235.679 5.49166C234.12 5.49166 232.852 6.75968 232.852 8.31822C232.852 9.87676 234.12 11.1448 235.679 11.1448C237.237 11.1448 238.505 9.87676 238.505 8.31822C238.505 6.75968 237.237 5.49166 235.679 5.49166Z" fill="#22252E"/>
<defs>
<linearGradient id="paint0_linear_0_626" x1="20.898" y1="16.3545" x2="20.898" y2="14.0571" gradientUnits="userSpaceOnUse">
<stop stop-color="#4CB649"/>
<stop offset="1" stop-color="#78B280"/>
</linearGradient>
<radialGradient id="paint1_radial_0_626" cx="0" cy="0" r="1" gradientUnits="userSpaceOnUse" gradientTransform="translate(14.9904 10.4884) scale(2.62533 0.455628)">
<stop/>
<stop offset="0.1901" stop-color="#030303"/>
<stop offset="0.3236" stop-color="#0C0C0C"/>
<stop offset="0.4397" stop-color="#1C1C1C"/>
<stop offset="0.5461" stop-color="#323232"/>
<stop offset="0.6456" stop-color="#4E4E4E"/>
<stop offset="0.7402" stop-color="#717171"/>
<stop offset="0.8309" stop-color="#9A9A9A"/>
<stop offset="0.9161" stop-color="#C9C9C9"/>
<stop offset="0.9985" stop-color="#FEFEFE"/>
<stop offset="1" stop-color="white"/>
</radialGradient>
<linearGradient id="paint2_linear_0_626" x1="22.5962" y1="24.9034" x2="24.7982" y2="27.8318" gradientUnits="userSpaceOnUse">
<stop stop-color="#23FF16"/>
<stop offset="1" stop-color="#189A33"/>
</linearGradient>
<linearGradient id="paint3_linear_0_626" x1="3.60769" y1="21.0946" x2="0.593546" y2="25.9408" gradientUnits="userSpaceOnUse">
<stop stop-color="#23FF16"/>
<stop offset="1" stop-color="#189A33"/>
</linearGradient>
</defs>
</svg>
