<svg width="168" height="24" viewBox="0 0 168 24" fill="none" xmlns="http://www.w3.org/2000/svg">
<path d="M18.4543 8.17016V8.17086H17.5651V7.35497C17.5651 3.30704 14.3495 0.0259399 10.3832 0.0259399C6.41769 0.0259399 3.20209 3.30774 3.20209 7.35497V8.17086H2.31418C1.38187 8.17086 0.626465 8.94119 0.626465 9.89307V16.6214C0.628514 17.07 0.654468 17.3952 0.82522 17.6321C1.00212 17.8705 1.29991 17.9553 1.74455 17.9546H3.17272L3.3906 21.4978C3.3906 21.5062 3.38991 21.5203 3.38991 21.5378C3.3906 21.6317 3.40084 21.8476 3.51627 22.0544C3.63033 22.2633 3.87007 22.4497 4.25733 22.4462H7.88752L9.77262 20.3938H11.181L13.0039 22.51H13.0545C13.0545 22.51 13.7143 22.51 14.4451 22.51C15.1745 22.51 15.9757 22.51 16.2585 22.51H16.2591C16.5399 22.5086 16.796 22.5156 17.0187 22.3705C17.2406 22.2219 17.3738 21.9401 17.438 21.4488C17.5316 20.7345 17.5534 18.7803 17.5965 17.9553H19.0233C19.4625 17.9539 19.7493 17.9111 19.9358 17.705C20.1154 17.4962 20.1393 17.1976 20.1414 16.7497V9.89377C20.1414 8.94119 19.386 8.17086 18.4543 8.17016Z" fill="#349334"/>
<path d="M19.9166 16.7497C19.9186 17.1905 19.8756 17.4373 19.7691 17.5508C19.67 17.6693 19.4542 17.7268 19.0239 17.7254H17.3833L17.3778 17.834C17.3382 18.6114 17.3116 20.6903 17.216 21.4179C17.1545 21.8875 17.035 22.0866 16.8963 22.1777C16.757 22.2738 16.5439 22.2808 16.2598 22.2794H16.2591C15.74 22.2794 13.4751 22.2794 13.1056 22.2794L11.2827 20.1625H9.67557L7.79047 22.2149H4.25727C3.93557 22.2114 3.79829 22.0852 3.71086 21.938C3.62685 21.7908 3.61319 21.6086 3.61456 21.5371C3.61456 21.5146 3.61524 21.5055 3.61524 21.5055L3.61592 21.4964L3.38302 17.7247H1.74448C1.3176 17.724 1.11407 17.6434 1.00547 17.4941C0.890722 17.3441 0.849741 17.0602 0.851107 16.6207V9.89236C0.852473 9.06736 1.50611 8.40076 2.31411 8.39936H3.42741V7.35426C3.43424 3.4339 6.54125 0.262152 10.3838 0.255142C14.2258 0.262152 17.3335 3.4339 17.3403 7.35496V8.40006H18.4543C19.2616 8.40146 19.9152 9.06806 19.9159 9.89306V16.7497H19.9166Z" fill="#4CB649"/>
<path d="M3.64209 17.5396H17.1574V17.9924H3.64209V17.5396Z" fill="#118011"/>
<path d="M3.41699 17.7029V9.01619H3.6417V17.7029H3.41699Z" fill="#118011"/>
<path d="M17.1582 17.7029V9.01619H17.3836V17.7029H17.1582Z" fill="#118011"/>
<ellipse cx="10.2822" cy="10.8905" rx="4.83979" ry="0.90982" fill="url(#paint0_linear_0_725)"/>
<path d="M14.8009 8.56199V7.23371C14.8009 4.73206 12.825 2.70354 10.3866 2.70354C7.94899 2.70354 5.97168 4.73206 5.97168 7.23371V8.56199H14.8009Z" fill="white"/>
<path d="M8.5249 7.17903H12.4604V7.65217H8.5249V7.17903Z" fill="url(#paint1_radial_0_725)"/>
<ellipse cx="8.91463" cy="5.17785" rx="0.815511" ry="0.836922" fill="black"/>
<ellipse cx="11.8223" cy="5.17785" rx="0.815511" ry="0.836922" fill="black"/>
<rect x="8.80078" y="13.6102" width="2.9622" height="2.27104" fill="white"/>
<path d="M9.25263 13.3788C9.38581 12.9001 9.79903 12.5524 10.2874 12.5517C10.7757 12.5524 11.189 12.9001 11.3228 13.3788H11.6746C11.5325 12.7102 10.9697 12.2055 10.2874 12.2048C9.60574 12.2055 9.04226 12.7102 8.90088 13.3788H9.25263Z" fill="white"/>
<path d="M19.2484 18.1866C19.3277 18.1859 19.4001 18.1838 19.4697 18.1803V17.9265C19.342 17.9469 19.1945 17.9546 19.023 17.9546H17.5962C17.5744 18.3646 17.5587 19.053 17.5361 19.7294H17.7684C17.7875 19.1308 17.8025 18.549 17.8209 18.1866H19.2484Z" fill="#118011"/>
<path d="M19.4707 18.3065V18.1803C19.401 18.1838 19.328 18.1859 19.2494 18.1866H17.8226C17.8035 18.5497 17.7885 19.1315 17.77 19.7294H18.0999C18.8574 19.7294 19.4707 19.0922 19.4707 18.3065Z" fill="url(#paint2_linear_0_725)"/>
<path d="M3.17281 17.9546H1.74464C1.52335 17.9553 1.33962 17.9342 1.18799 17.8838V18.1789C1.27815 18.1894 1.3765 18.195 1.48373 18.1943L2.91258 18.1936L3.00752 19.7287H3.28277L3.17281 17.9546Z" fill="#118011"/>
<path d="M1.48373 18.195C1.3765 18.195 1.27815 18.1901 1.18799 18.1796V18.3072C1.18799 19.0929 1.80133 19.7301 2.55742 19.7301H3.00684L2.9119 18.195H1.48373Z" fill="url(#paint3_linear_0_725)"/>
<path fill-rule="evenodd" clip-rule="evenodd" d="M30.0652 12.1002C30.0652 13.2897 29.8022 14.2423 29.2756 14.9586C28.7497 15.675 28.0387 16.0325 27.1446 16.0325C26.3845 16.0325 25.7697 15.7612 25.3019 15.2187V18.8587H23.2925V8.16794H25.1564L25.2261 8.92425C25.7131 8.32495 26.3483 8.02495 27.1317 8.02495C28.0585 8.02495 28.7798 8.37752 29.2941 9.08126C29.8084 9.78571 30.0659 10.7558 30.0659 11.993V12.1002H30.0652ZM28.0558 11.9432C28.0558 11.2226 27.9315 10.6668 27.6835 10.275C27.4356 9.88384 27.075 9.68758 26.6023 9.68758C25.9719 9.68758 25.5382 9.93571 25.3019 10.432V13.603C25.5478 14.1133 25.9856 14.3692 26.616 14.3692C27.5763 14.3699 28.0558 13.561 28.0558 11.9432Z" fill="black"/>
<path d="M35.7517 10.1025C35.4779 10.0647 35.2374 10.0458 35.0284 10.0458C34.2683 10.0458 33.7697 10.31 33.5333 10.8378V15.8902H31.5239V8.16794H33.4227L33.478 9.08827C33.8817 8.37962 34.4397 8.02495 35.1541 8.02495C35.3768 8.02495 35.5851 8.05579 35.7797 8.11747L35.7517 10.1025Z" fill="black"/>
<path fill-rule="evenodd" clip-rule="evenodd" d="M36.9185 6.17026C36.9185 5.86114 37.0189 5.6067 37.221 5.40694C37.4225 5.20717 37.6971 5.10693 38.0447 5.10693C38.3876 5.10693 38.6615 5.20717 38.865 5.40694C39.0692 5.6067 39.171 5.86114 39.171 6.17026C39.171 6.48428 39.0679 6.74153 38.8616 6.94129C38.6553 7.14106 38.3828 7.2413 38.0447 7.2413C37.706 7.2413 37.4341 7.14106 37.2279 6.94129C37.0216 6.74082 36.9185 6.48428 36.9185 6.17026ZM39.0535 15.8902H37.0366V8.16794H39.0535V15.8902Z" fill="black"/>
<path d="M43.7384 13.371L45.1358 8.16864H47.2361L44.698 15.8902H42.7788L40.2407 8.16794H42.341L43.7384 13.371Z" fill="black"/>
<path fill-rule="evenodd" clip-rule="evenodd" d="M52.5887 15.8902C52.4958 15.7044 52.4289 15.4738 52.3872 15.1977C51.9002 15.7542 51.2677 16.0325 50.4884 16.0325C49.7515 16.0325 49.1402 15.8138 48.6559 15.3757C48.1717 14.9383 47.9292 14.386 47.9292 13.7201C47.9292 12.9021 48.2249 12.274 48.8157 11.836C49.4072 11.3986 50.261 11.1771 51.3784 11.1722H52.3032V10.7299C52.3032 10.3731 52.2137 10.0878 52.0354 9.87333C51.8572 9.65954 51.5751 9.55229 51.1906 9.55229C50.8518 9.55229 50.5868 9.63571 50.3942 9.80183C50.2016 9.96865 50.1053 10.1972 50.1053 10.4866H48.0959C48.0959 10.0394 48.2304 9.62589 48.4995 9.24458C48.7679 8.86397 49.1484 8.56537 49.6401 8.34878C50.1312 8.13219 50.6831 8.02425 51.2951 8.02425C52.2219 8.02425 52.9582 8.26327 53.5025 8.74131C54.0476 9.21935 54.3194 9.89155 54.3194 10.7572V14.1042C54.3242 14.8367 54.4239 15.3911 54.6186 15.7668V15.8881H52.5887V15.8902ZM50.9269 14.4554C51.2233 14.4554 51.4972 14.3874 51.7472 14.2521C51.9979 14.1161 52.183 13.9346 52.3039 13.7061V12.3785H51.5526C50.5465 12.3785 50.011 12.7353 49.9461 13.4488L49.9393 13.5701C49.9393 13.8273 50.0274 14.039 50.2036 14.2051C50.3798 14.3727 50.6209 14.4554 50.9269 14.4554Z" fill="black"/>
<path d="M58.4836 6.26979V8.16794H59.7704V9.68056H58.4836V13.5343C58.4836 13.8196 58.5368 14.0243 58.6434 14.1484C58.7499 14.2724 58.9542 14.3341 59.2554 14.3341C59.478 14.3341 59.6747 14.3173 59.8462 14.2843V15.8474C59.4521 15.9708 59.0464 16.0332 58.629 16.0332C57.2193 16.0332 56.5008 15.3028 56.4735 13.842V9.68126H55.3745V8.16794H56.4735V6.26979H58.4836Z" fill="black"/>
<path fill-rule="evenodd" clip-rule="evenodd" d="M64.5665 16.0325C63.4628 16.0325 62.5646 15.6855 61.8721 14.9909C61.1788 14.2963 60.8325 13.371 60.8325 12.2145V12.0147C60.8325 11.2395 60.9787 10.5455 61.2703 9.93431C61.5627 9.32309 61.9766 8.85206 62.5114 8.52121C63.0468 8.19037 63.6574 8.02565 64.3439 8.02565C65.3732 8.02565 66.1832 8.3586 66.7747 9.02449C67.3655 9.69038 67.6612 10.6352 67.6612 11.8577V12.6995H62.8699C62.9348 13.2042 63.1308 13.6086 63.4573 13.9128C63.7845 14.2178 64.1977 14.3699 64.699 14.3699C65.4729 14.3699 66.078 14.0818 66.5138 13.5063L67.5014 14.6411C67.2002 15.0792 66.7918 15.4199 66.2775 15.6652C65.7625 15.9105 65.1922 16.0325 64.5665 16.0325ZM64.337 9.68828C63.9382 9.68828 63.6151 9.82707 63.3672 10.1039C63.1192 10.3808 62.9601 10.7775 62.8904 11.2941H65.686V11.1294C65.6764 10.6703 65.5562 10.3156 65.3247 10.0647C65.0924 9.81375 64.7632 9.68828 64.337 9.68828Z" fill="black"/>
<path fill-rule="evenodd" clip-rule="evenodd" d="M69.2793 5.93825C69.2793 5.77774 69.3305 5.64175 69.4323 5.5303C69.5341 5.41955 69.6734 5.36348 69.8496 5.36348C70.0258 5.36348 70.1658 5.41885 70.2703 5.5303C70.3748 5.64175 70.4268 5.77703 70.4268 5.93825C70.4268 6.09947 70.3748 6.23405 70.2703 6.34269C70.1665 6.45134 70.0258 6.50601 69.8496 6.50601C69.6734 6.50601 69.5341 6.45134 69.4323 6.34269C69.3305 6.23335 69.2793 6.09877 69.2793 5.93825ZM70.2601 15.8902H69.4255V8.16794H70.2601V15.8902Z" fill="black"/>
<path d="M73.5264 8.16794L73.5544 9.48851C73.8371 9.01257 74.1896 8.65019 74.6117 8.39995C75.0331 8.14972 75.4996 8.02495 76.0091 8.02495C76.8157 8.02495 77.4161 8.25836 77.8102 8.72449C78.2043 9.19061 78.4037 9.89015 78.4085 10.8224V15.8895H77.5807V10.8154C77.5759 10.1257 77.4339 9.61188 77.1531 9.27402C76.8724 8.93617 76.4244 8.76724 75.8076 8.76724C75.2933 8.76724 74.8377 8.93267 74.4409 9.26281C74.0448 9.59365 73.7511 10.0394 73.5612 10.6009V15.8888H72.7334V8.16794H73.5264Z" fill="black"/>
<path d="M82.0637 6.19128V8.16793H83.6217V8.86747H82.0637V14.0187C82.0637 14.4477 82.1389 14.7666 82.2898 14.9762C82.4401 15.1857 82.6921 15.2902 83.0445 15.2902C83.1839 15.2902 83.4086 15.2664 83.7193 15.2187L83.7542 15.9119C83.5363 15.9918 83.2399 16.0318 82.8642 16.0318C82.2939 16.0318 81.8793 15.8615 81.6198 15.5215C81.3602 15.1815 81.2305 14.6804 81.2305 14.0194V8.86747H79.8467V8.16793H81.2305V6.19128L82.0637 6.19128Z" fill="black"/>
<path fill-rule="evenodd" clip-rule="evenodd" d="M88.4741 16.0325C87.8341 16.0325 87.2563 15.8706 86.7392 15.5474C86.2222 15.2243 85.8199 14.7729 85.533 14.1953C85.2455 13.617 85.1021 12.9687 85.1021 12.2502V11.9432C85.1021 11.2009 85.2421 10.5329 85.5228 9.93781C85.8035 9.34342 86.1935 8.87589 86.6941 8.53523C87.1948 8.19528 87.7371 8.02495 88.3211 8.02495C89.2342 8.02495 89.9589 8.34528 90.4944 8.98524C91.0299 9.62519 91.2976 10.4993 91.2976 11.6082V12.0862H85.9292V12.2502C85.9292 13.1257 86.1737 13.8547 86.6627 14.4378C87.1518 15.0203 87.7671 15.3119 88.5089 15.3119C88.9542 15.3119 89.3469 15.2285 89.6878 15.0624C90.0286 14.8963 90.338 14.6299 90.616 14.2633L91.1378 14.6699C90.5251 15.5783 89.6372 16.0325 88.4741 16.0325ZM88.3211 8.75322C87.6954 8.75322 87.1682 8.98874 86.7392 9.45977C86.3103 9.9308 86.0494 10.5638 85.9572 11.3579H90.4705V11.2654C90.4473 10.5231 90.241 9.91889 89.8517 9.45276C89.461 8.98664 88.9508 8.75322 88.3211 8.75322Z" fill="black"/>
<path d="M96.6078 8.89622C96.4315 8.86327 96.2437 8.84645 96.0443 8.84645C95.5252 8.84645 95.086 8.99505 94.7261 9.29225C94.3668 9.58945 94.1107 10.0212 93.9577 10.5876V15.8902H93.1299V8.16794H93.9433L93.957 9.39529C94.3975 8.48196 95.1045 8.02495 96.0777 8.02495C96.3093 8.02495 96.4923 8.05579 96.6269 8.11747L96.6078 8.89622Z" fill="black"/>
<path d="M98.9287 8.16794L98.9567 9.48851C99.2395 9.01257 99.5919 8.65019 100.014 8.39995C100.435 8.14972 100.902 8.02495 101.411 8.02495C102.218 8.02495 102.818 8.25836 103.213 8.72449C103.607 9.19061 103.806 9.89015 103.811 10.8224V15.8895H102.983V10.8154C102.978 10.1257 102.836 9.61188 102.555 9.27402C102.275 8.93617 101.827 8.76724 101.21 8.76724C100.696 8.76724 100.24 8.93267 99.8433 9.26281C99.4471 9.59365 99.1534 10.0394 98.9635 10.6009V15.8888H98.1357V8.16794H98.9287Z" fill="black"/>
<path fill-rule="evenodd" clip-rule="evenodd" d="M109.086 16.0325C108.446 16.0325 107.869 15.8706 107.352 15.5474C106.834 15.2243 106.432 14.7729 106.145 14.1953C105.858 13.617 105.714 12.9687 105.714 12.2502V11.9432C105.714 11.2009 105.854 10.5329 106.135 9.93781C106.416 9.34342 106.806 8.87589 107.306 8.53523C107.807 8.19528 108.349 8.02495 108.933 8.02495C109.847 8.02495 110.571 8.34528 111.107 8.98524C111.642 9.62519 111.91 10.4993 111.91 11.6082V12.0862H106.541V12.2502C106.541 13.1257 106.786 13.8547 107.275 14.4378C107.764 15.0203 108.379 15.3119 109.121 15.3119C109.567 15.3119 109.959 15.2285 110.3 15.0624C110.641 14.8963 110.95 14.6299 111.228 14.2633L111.75 14.6699C111.138 15.5783 110.25 16.0325 109.086 16.0325ZM108.933 8.75322C108.308 8.75322 107.78 8.98874 107.352 9.45977C106.923 9.9308 106.662 10.5638 106.569 11.3579H111.083V11.2654C111.06 10.5231 110.853 9.91889 110.464 9.45276C110.074 8.98664 109.564 8.75322 108.933 8.75322Z" fill="black"/>
<path d="M115.037 6.19128V8.16793H116.595V8.86747H115.037V14.0187C115.037 14.4477 115.112 14.7666 115.263 14.9762C115.414 15.1857 115.666 15.2902 116.018 15.2902C116.157 15.2902 116.382 15.2664 116.693 15.2187L116.728 15.9119C116.51 15.9918 116.213 16.0318 115.838 16.0318C115.268 16.0318 114.853 15.8615 114.593 15.5215C114.334 15.1815 114.204 14.6804 114.204 14.0194V8.86747H112.82V8.16793H114.204V6.19128L115.037 6.19128Z" fill="black"/>
<path fill-rule="evenodd" clip-rule="evenodd" d="M123.283 15.8902C123.2 15.6477 123.146 15.2881 123.123 14.8128C122.831 15.2033 122.459 15.504 122.007 15.7156C121.556 15.9273 121.076 16.0332 120.571 16.0332C119.848 16.0332 119.263 15.8264 118.815 15.4121C118.368 14.9979 118.144 14.475 118.144 13.842C118.144 13.0906 118.449 12.4955 119.059 12.0581C119.669 11.6208 120.517 11.4014 121.608 11.4014H123.116V10.5238C123.116 9.97215 122.95 9.53756 122.619 9.22144C122.288 8.90532 121.804 8.7469 121.169 8.7469C120.589 8.7469 120.11 8.89901 119.729 9.20392C119.349 9.50883 119.159 9.87472 119.159 10.303L118.324 10.296C118.324 9.68196 118.602 9.15065 119.159 8.70134C119.716 8.25134 120.399 8.02704 121.211 8.02704C122.049 8.02704 122.712 8.24223 123.196 8.67331C123.681 9.10368 123.93 9.70439 123.943 10.4754V14.1294C123.943 14.8766 124.02 15.4353 124.173 15.8068V15.8923H123.283V15.8902ZM120.668 15.2762C121.225 15.2762 121.722 15.1381 122.16 14.8619C122.599 14.5864 122.917 14.217 123.116 13.7558V12.0574H121.628C120.798 12.0673 120.149 12.2229 119.681 12.525C119.212 12.8271 118.979 13.242 118.979 13.7705C118.979 14.2037 119.135 14.5626 119.448 14.8479C119.761 15.1339 120.168 15.2762 120.668 15.2762Z" fill="black"/>
<path d="M129.157 15.3119C129.736 15.3119 130.221 15.1444 130.613 14.8086C131.005 14.4729 131.217 14.039 131.25 13.5063H132.05C132.027 13.9773 131.883 14.407 131.619 14.7946C131.354 15.1822 131.003 15.4858 130.566 15.7044C130.127 15.9231 129.658 16.0325 129.157 16.0325C128.17 16.0325 127.388 15.6806 126.81 14.9762C126.233 14.2724 125.944 13.3255 125.944 12.136V11.8787C125.944 11.1175 126.074 10.4446 126.334 9.85931C126.593 9.27402 126.965 8.82192 127.45 8.50369C127.934 8.18476 128.501 8.02565 129.15 8.02565C129.975 8.02565 130.655 8.27799 131.191 8.78196C131.726 9.28664 132.012 9.94973 132.049 10.7733H131.249C131.212 10.1691 131 9.68127 130.613 9.31047C130.225 8.93968 129.738 8.75393 129.149 8.75393C128.398 8.75393 127.815 9.0322 127.4 9.58875C126.985 10.1453 126.778 10.9261 126.778 11.9299V12.1794C126.778 13.1642 126.985 13.9325 127.4 14.4848C127.816 15.0364 128.401 15.3119 129.157 15.3119Z" fill="black"/>
<path d="M136.707 15.3119C137.286 15.3119 137.772 15.1444 138.164 14.8086C138.556 14.4729 138.767 14.039 138.8 13.5063H139.6C139.577 13.9773 139.433 14.407 139.169 14.7946C138.905 15.1822 138.554 15.4858 138.116 15.7044C137.677 15.9231 137.208 16.0325 136.707 16.0325C135.72 16.0325 134.938 15.6806 134.361 14.9762C133.784 14.2724 133.495 13.3255 133.495 12.136V11.8787C133.495 11.1175 133.624 10.4446 133.884 9.85931C134.143 9.27402 134.516 8.82192 135 8.50369C135.484 8.18476 136.051 8.02565 136.7 8.02565C137.525 8.02565 138.205 8.27799 138.741 8.78196C139.276 9.28664 139.562 9.94973 139.599 10.7733H138.8C138.762 10.1691 138.55 9.68127 138.163 9.31047C137.776 8.93968 137.288 8.75393 136.699 8.75393C135.948 8.75393 135.365 9.0322 134.95 9.58875C134.536 10.1453 134.328 10.9261 134.328 11.9299V12.1794C134.328 13.1642 134.536 13.9325 134.95 14.4848C135.366 15.0364 135.951 15.3119 136.707 15.3119Z" fill="black"/>
<path fill-rule="evenodd" clip-rule="evenodd" d="M144.389 16.0325C143.749 16.0325 143.171 15.8706 142.654 15.5474C142.137 15.2243 141.735 14.7729 141.448 14.1953C141.161 13.617 141.017 12.9687 141.017 12.2502V11.9432C141.017 11.2009 141.157 10.5329 141.438 9.93781C141.719 9.34342 142.109 8.87589 142.609 8.53523C143.11 8.19528 143.652 8.02495 144.236 8.02495C145.149 8.02495 145.874 8.34528 146.409 8.98524C146.945 9.62519 147.213 10.4993 147.213 11.6082V12.0862H141.844V12.2502C141.844 13.1257 142.089 13.8547 142.578 14.4378C143.067 15.0203 143.682 15.3119 144.424 15.3119C144.869 15.3119 145.262 15.2285 145.603 15.0624C145.944 14.8963 146.253 14.6299 146.531 14.2633L147.053 14.6699C146.441 15.5783 145.553 16.0325 144.389 16.0325ZM144.236 8.75322C143.61 8.75322 143.083 8.98874 142.654 9.45977C142.225 9.9308 141.964 10.5638 141.872 11.3579H146.386V11.2654C146.362 10.5231 146.156 9.91889 145.767 9.45276C145.377 8.98664 144.867 8.75322 144.236 8.75322Z" fill="black"/>
<path d="M153.553 13.9276C153.553 13.5042 153.387 13.1642 153.056 12.907C152.725 12.6497 152.225 12.4493 151.557 12.3042C150.89 12.1591 150.372 11.993 150.003 11.8044C149.635 11.6166 149.361 11.3874 149.183 11.1161C149.004 10.8448 148.915 10.5168 148.915 10.1313C148.915 9.52216 149.163 9.01888 149.659 8.62145C150.154 8.22402 150.79 8.02565 151.564 8.02565C152.403 8.02565 153.076 8.23874 153.585 8.66421C154.092 9.09038 154.346 9.64552 154.346 10.331H153.511C153.511 9.87893 153.327 9.50323 152.959 9.20323C152.59 8.90323 152.126 8.75393 151.564 8.75393C151.017 8.75393 150.578 8.87869 150.247 9.12893C149.915 9.37846 149.749 9.703 149.749 10.1032C149.749 10.4888 149.887 10.7874 150.163 10.999C150.439 11.2107 150.942 11.4049 151.672 11.5808C152.402 11.7568 152.949 11.9446 153.313 12.1444C153.677 12.3441 153.947 12.5846 154.123 12.8649C154.3 13.146 154.388 13.486 154.388 13.8855C154.388 14.5374 154.132 15.0582 153.619 15.4486C153.107 15.839 152.438 16.0339 151.613 16.0339C150.737 16.0339 150.027 15.8159 149.482 15.3813C148.937 14.946 148.666 14.3951 148.666 13.7292H149.5C149.532 14.229 149.738 14.6173 150.116 14.8963C150.493 15.1745 150.993 15.3133 151.614 15.3133C152.193 15.3133 152.662 15.1822 153.019 14.9208C153.374 14.6579 153.553 14.3271 153.553 13.9276Z" fill="black"/>
<path d="M160.977 13.9276C160.977 13.5042 160.811 13.1642 160.48 12.907C160.149 12.6497 159.649 12.4493 158.982 12.3042C158.314 12.1591 157.796 11.993 157.427 11.8044C157.059 11.6166 156.785 11.3874 156.607 11.1161C156.429 10.8448 156.339 10.5168 156.339 10.1313C156.339 9.52216 156.587 9.01888 157.083 8.62145C157.579 8.22402 158.214 8.02565 158.989 8.02565C159.827 8.02565 160.501 8.23874 161.009 8.66421C161.516 9.09038 161.77 9.64552 161.77 10.331H160.936C160.936 9.87893 160.751 9.50323 160.383 9.20323C160.014 8.90323 159.55 8.75393 158.989 8.75393C158.441 8.75393 158.002 8.87869 157.671 9.12893C157.34 9.37846 157.174 9.703 157.174 10.1032C157.174 10.4888 157.312 10.7874 157.588 10.999C157.864 11.2107 158.366 11.4049 159.096 11.5808C159.827 11.7568 160.374 11.9446 160.738 12.1444C161.102 12.3441 161.372 12.5846 161.548 12.8649C161.724 13.146 161.812 13.486 161.812 13.8855C161.812 14.5374 161.556 15.0582 161.044 15.4486C160.531 15.839 159.863 16.0339 159.038 16.0339C158.161 16.0339 157.451 15.8159 156.907 15.3813C156.362 14.946 156.09 14.3951 156.09 13.7292H156.924C156.957 14.229 157.162 14.6173 157.54 14.8963C157.918 15.1745 158.418 15.3133 159.038 15.3133C159.618 15.3133 160.086 15.1822 160.443 14.9208C160.799 14.6579 160.977 14.3271 160.977 13.9276Z" fill="black"/>
<path fill-rule="evenodd" clip-rule="evenodd" d="M165.776 6.18287H165.257V7.099H164.965V4.83496H165.696C165.944 4.83496 166.136 4.89314 166.269 5.00879C166.403 5.12515 166.47 5.29408 166.47 5.51557C166.47 5.65646 166.433 5.77913 166.358 5.88427C166.284 5.98871 166.18 6.06791 166.048 6.11908L166.566 7.08007V7.0983H166.254L165.776 6.18287ZM165.258 5.93894H165.705C165.849 5.93894 165.965 5.90109 166.049 5.82399C166.135 5.74688 166.177 5.64455 166.177 5.51557C166.177 5.37539 166.137 5.26814 166.056 5.19314C165.974 5.11814 165.857 5.08029 165.703 5.07889H165.258V5.93894Z" fill="black"/>
<path fill-rule="evenodd" clip-rule="evenodd" d="M165.665 8.39364C164.379 8.39364 163.333 7.3205 163.333 6.00063C163.333 4.68076 164.38 3.60692 165.665 3.60692C166.951 3.60692 167.997 4.68006 167.997 5.99993C167.997 7.3198 166.951 8.39364 165.665 8.39364ZM165.665 3.96159C164.57 3.96159 163.678 4.87632 163.678 6.00063C163.678 7.12494 164.57 8.03966 165.665 8.03966C166.761 8.03966 167.652 7.12494 167.652 6.00063C167.652 4.87632 166.761 3.96159 165.665 3.96159Z" fill="black"/>
<defs>
<linearGradient id="paint0_linear_0_725" x1="14.69" y1="11.7979" x2="14.69" y2="10.1406" gradientUnits="userSpaceOnUse">
<stop stop-color="#4CB649"/>
<stop offset="1" stop-color="#78B280"/>
</linearGradient>
<radialGradient id="paint1_radial_0_725" cx="0" cy="0" r="1" gradientUnits="userSpaceOnUse" gradientTransform="translate(10.5374 7.56616) scale(1.84542 0.328683)">
<stop/>
<stop offset="0.1901" stop-color="#030303"/>
<stop offset="0.3236" stop-color="#0C0C0C"/>
<stop offset="0.4397" stop-color="#1C1C1C"/>
<stop offset="0.5461" stop-color="#323232"/>
<stop offset="0.6456" stop-color="#4E4E4E"/>
<stop offset="0.7402" stop-color="#717171"/>
<stop offset="0.8309" stop-color="#9A9A9A"/>
<stop offset="0.9161" stop-color="#C9C9C9"/>
<stop offset="0.9985" stop-color="#FEFEFE"/>
<stop offset="1" stop-color="white"/>
</radialGradient>
<linearGradient id="paint2_linear_0_725" x1="15.8837" y1="17.9649" x2="17.4831" y2="20.0376" gradientUnits="userSpaceOnUse">
<stop stop-color="#23FF16"/>
<stop offset="1" stop-color="#189A33"/>
</linearGradient>
<linearGradient id="paint3_linear_0_725" x1="2.53603" y1="15.2173" x2="0.337217" y2="18.6622" gradientUnits="userSpaceOnUse">
<stop stop-color="#23FF16"/>
<stop offset="1" stop-color="#189A33"/>
</linearGradient>
</defs>
</svg>
